<svg width="25" height="25" viewBox="0 0 25 25" fill="none" xmlns="http://www.w3.org/2000/svg">
<g clip-path="url(#clip0_419_462)">
<path d="M21.7667 0.5H2.56667C1.24119 0.5 0.166672 1.57452 0.166672 2.9V22.1C0.166672 23.4255 1.24119 24.5 2.56667 24.5H21.7667C23.0921 24.5 24.1667 23.4255 24.1667 22.1V2.9C24.1667 1.57452 23.0921 0.5 21.7667 0.5Z" fill="#FDE635"/>
<path d="M3.70284 3.67566H20.7251V20.5717H3.70284V3.67566Z" fill="#FDE635"/>
<path d="M6.86938 18.1496L8.39722 17.2251C8.69194 17.7479 8.96026 18.1899 9.60347 18.1899C10.2198 18.1899 10.6086 17.9499 10.6086 17.0106V10.6314H12.4849V17.037C12.4849 18.98 11.3459 19.8647 9.6841 19.8647C9.09663 19.8964 8.51329 19.7496 8.01092 19.4433C7.5086 19.1371 7.11078 18.6859 6.86986 18.1491L6.86938 18.1496ZM13.5044 17.948L15.0323 17.0634C15.2021 17.408 15.4658 17.6977 15.793 17.8992C16.1201 18.1007 16.4975 18.2058 16.8817 18.2024C17.6593 18.2024 18.1547 17.8136 18.1547 17.2775C18.1547 16.6343 17.6454 16.4063 16.7876 16.0295L16.3201 15.8307C14.9665 15.2547 14.0684 14.5309 14.0684 13.0031C14.0684 11.5957 15.1407 10.5239 16.8159 10.5239C17.3587 10.4845 17.9011 10.6059 18.3754 10.8728C18.8497 11.1397 19.2348 11.5404 19.4828 12.0248L18.0217 12.9632C17.9258 12.7227 17.7591 12.5171 17.5437 12.3735C17.3282 12.2299 17.0743 12.1552 16.8155 12.1592C16.7026 12.1478 16.5886 12.16 16.4808 12.1951C16.3729 12.2303 16.2736 12.2875 16.1891 12.3631C16.1046 12.4388 16.0368 12.5312 15.99 12.6345C15.9432 12.7379 15.9185 12.8498 15.9174 12.9632C15.9174 13.5263 16.2659 13.7538 17.0694 14.1023L17.5383 14.3034C19.1334 14.9869 20.031 15.6839 20.031 17.2515C20.031 18.9402 18.7043 19.8651 16.922 19.8651C15.1796 19.8651 14.054 19.0343 13.5044 17.9485" fill="black"/>
</g>
<defs>
<clipPath id="clip0_419_462">
<rect width="24" height="24" fill="white" transform="translate(0.166672 0.5)"/>
</clipPath>
</defs>
</svg>
