<svg width="25" height="25" viewBox="0 0 25 25" fill="none" xmlns="http://www.w3.org/2000/svg">
<g clip-path="url(#clip0_419_452)">
<path d="M3.23331 1H22.4333C23.4826 1 24.3333 1.85066 24.3333 2.9V22.1C24.3333 23.1493 23.4826 24 22.4333 24H3.23331C2.18397 24 1.33331 23.1493 1.33331 22.1V2.9C1.33331 1.85066 2.18397 1 3.23331 1Z" fill="#4479A1" stroke="#F8981D"/>
<path d="M8.8461 16.8402H8.25345C8.23247 15.8275 8.17478 14.8754 8.08041 13.9832H8.07513L7.17278 16.8402H6.72153L5.82455 13.9832H5.81942C5.75289 14.8398 5.71094 15.7921 5.69356 16.8402H5.15332C5.18813 15.5657 5.27563 14.3708 5.41547 13.2555H6.15004L7.00497 15.8895H7.01025L7.87046 13.2555H8.57332C8.72726 14.5619 8.81817 15.7569 8.8461 16.8402ZM11.4165 14.1954C11.1752 15.521 10.8568 16.4843 10.4616 17.0855C10.1538 17.5483 9.81652 17.78 9.44922 17.78C9.35131 17.78 9.23049 17.7501 9.08731 17.6907V17.3711C9.15729 17.3813 9.23942 17.387 9.33378 17.387C9.50534 17.387 9.64324 17.3393 9.74836 17.2435C9.87412 17.1269 9.937 16.9958 9.937 16.8507C9.937 16.7512 9.88799 16.5479 9.79017 16.24L9.13977 14.1953H9.72201L10.1889 15.7245C10.2937 16.0717 10.3375 16.3141 10.32 16.4522C10.5753 15.7621 10.7536 15.0095 10.8551 14.1951L11.4165 14.1954Z" fill="white"/>
<path d="M19.3056 16.8402H17.6221V13.2555H18.1884V16.399H19.3056V16.8402ZM17.1814 16.9269L16.5304 16.6016C16.5882 16.5537 16.6434 16.5017 16.693 16.4415C16.9698 16.1125 17.1078 15.6259 17.1078 14.9814C17.1078 13.7954 16.648 13.2022 15.7283 13.2022C15.2773 13.2022 14.9254 13.3527 14.6738 13.6538C14.3974 13.9831 14.2594 14.4679 14.2594 15.1089C14.2594 15.7391 14.3817 16.2013 14.6264 16.4945C14.8503 16.7601 15.1878 16.8931 15.6392 16.8931C15.8075 16.8931 15.962 16.8722 16.1028 16.8301L16.9503 17.3296L17.1814 16.9269ZM15.0726 16.1229C14.9292 15.8894 14.8575 15.5145 14.8575 14.9975C14.8575 14.0949 15.1284 13.6431 15.6706 13.6431C15.9541 13.6431 16.1619 13.7512 16.2947 13.9668C16.4379 14.2007 16.5099 14.5723 16.5099 15.082C16.5099 15.992 16.2388 16.4471 15.6969 16.4471C15.4133 16.4472 15.2056 16.3395 15.0726 16.1229ZM14.0125 15.8466C14.0125 16.1507 13.9024 16.4 13.6822 16.5954C13.4619 16.7899 13.1664 16.8874 12.7962 16.8874C12.4498 16.8874 12.114 16.7754 11.789 16.5526L11.9412 16.2448C12.2209 16.3866 12.4741 16.457 12.7015 16.457C12.9148 16.457 13.0816 16.4092 13.2025 16.3142C13.3233 16.2189 13.3954 16.0852 13.3954 15.9162C13.3954 15.7032 13.2487 15.5212 12.9795 15.3687C12.7313 15.2308 12.235 14.9423 12.235 14.9423C11.966 14.7438 11.8313 14.5308 11.8313 14.1797C11.8313 13.8891 11.9317 13.6546 12.1327 13.4761C12.3339 13.2971 12.5936 13.2078 12.9118 13.2078C13.2405 13.2078 13.5393 13.2969 13.8084 13.4734L13.6719 13.7813C13.4418 13.6823 13.2145 13.6328 12.9904 13.6328C12.8089 13.6328 12.6687 13.677 12.5712 13.7657C12.473 13.854 12.4124 13.967 12.4124 14.1057C12.4124 14.3176 12.5622 14.502 12.8386 14.6575C13.0902 14.7957 13.5989 15.0891 13.5989 15.0891C13.8748 15.2872 14.0125 15.4984 14.0125 15.8466Z" fill="#F8981D"/>
<path d="M20.0166 12.0549C19.6742 12.0461 19.409 12.081 19.1865 12.1763C19.1223 12.2023 19.0201 12.2023 19.0112 12.2845C19.0459 12.3193 19.0499 12.3754 19.08 12.4234C19.1313 12.51 19.2208 12.6265 19.3024 12.6872C19.3921 12.7568 19.4821 12.8257 19.5765 12.8863C19.7429 12.9905 19.9315 13.0512 20.0937 13.155C20.1882 13.2155 20.2821 13.2936 20.3767 13.3586C20.4232 13.3933 20.453 13.4495 20.5133 13.4712V13.458C20.4831 13.419 20.4745 13.3627 20.4448 13.3193L20.3163 13.1939C20.1922 13.0251 20.0379 12.8777 19.8715 12.7567C19.7345 12.6612 19.435 12.5313 19.3794 12.3715L19.3707 12.3627C19.4648 12.3538 19.5765 12.3193 19.6659 12.2927C19.8115 12.2538 19.9442 12.2627 20.0936 12.2238C20.1623 12.2064 20.2305 12.1846 20.2994 12.1632V12.1241C20.222 12.0461 20.1668 11.9425 20.0854 11.8687C19.8675 11.6782 19.6274 11.4919 19.3794 11.336C19.2466 11.2491 19.0757 11.1932 18.9342 11.1194C18.8832 11.0933 18.7974 11.0804 18.7674 11.0371C18.6906 10.9418 18.6475 10.8163 18.5918 10.7035C18.4681 10.4655 18.3479 10.2014 18.2412 9.94969C18.164 9.78087 18.1171 9.6123 18.0229 9.45615C17.582 8.71993 17.1032 8.27401 16.3672 7.83635C16.2091 7.74524 16.0209 7.70641 15.8199 7.6586L15.4989 7.64147C15.4304 7.61108 15.3618 7.52867 15.302 7.48969C15.0578 7.33388 14.4292 6.99615 14.2496 7.44207C14.1339 7.72388 14.4207 8.00099 14.5192 8.14393C14.5919 8.24319 14.6862 8.35609 14.7371 8.46879C14.7671 8.54243 14.7756 8.62057 14.8057 8.69838C14.8742 8.88899 14.9383 9.101 15.0283 9.27889C15.0753 9.36951 15.1264 9.46484 15.1864 9.54692C15.2208 9.59492 15.2806 9.61614 15.2937 9.69438C15.234 9.78063 15.2293 9.91086 15.195 10.0191C15.0411 10.5085 15.1012 11.1147 15.3194 11.4744C15.3877 11.5827 15.5505 11.8211 15.7684 11.7297C15.9612 11.6518 15.9185 11.405 15.9739 11.1885C15.9866 11.1362 15.9783 11.1019 16.004 11.0676V11.076C16.0636 11.1972 16.1239 11.3139 16.1792 11.4354C16.3119 11.6475 16.543 11.8685 16.7355 12.0154C16.8381 12.0938 16.9192 12.2278 17.0476 12.2756V12.2627H17.0391C17.0132 12.2238 16.9751 12.2064 16.941 12.1763C16.8638 12.0983 16.7784 12.0029 16.7185 11.9165C16.5391 11.6738 16.3804 11.4052 16.2395 11.128C16.1706 10.9935 16.1111 10.8465 16.0556 10.7122C16.0297 10.6604 16.0297 10.5822 15.9868 10.5562C15.9224 10.6514 15.8286 10.7338 15.7816 10.8504C15.7002 11.0369 15.6917 11.2664 15.6615 11.505L15.6447 11.5133C15.5084 11.4787 15.461 11.336 15.4092 11.2148C15.281 10.9071 15.2595 10.4132 15.3707 10.0582C15.4005 9.9674 15.5293 9.68151 15.4779 9.59502C15.4522 9.51212 15.3665 9.46494 15.3195 9.39966C15.2643 9.31758 15.2039 9.2137 15.1654 9.1226C15.0628 8.88015 15.0111 8.61155 14.9006 8.36919C14.8489 8.2563 14.7593 8.13942 14.6867 8.0354C14.6051 7.91857 14.5154 7.83625 14.451 7.69767C14.4297 7.65006 14.3998 7.57215 14.434 7.52031C14.4424 7.48551 14.4598 7.47255 14.4939 7.46387C14.5493 7.41644 14.7077 7.47673 14.7633 7.50279C14.9219 7.56774 15.0545 7.62836 15.1869 7.71927C15.2468 7.76271 15.311 7.84503 15.3879 7.86673H15.4779C15.6145 7.89687 15.7686 7.87508 15.8972 7.91425C16.1239 7.98803 16.3292 8.09617 16.5133 8.21291C17.0737 8.57267 17.5358 9.08386 17.8478 9.69438C17.899 9.79388 17.9208 9.88498 17.9675 9.98876C18.0576 10.2012 18.1691 10.4177 18.2585 10.6256C18.3484 10.8291 18.4341 11.0368 18.5625 11.2059C18.6265 11.2968 18.8837 11.3444 18.9991 11.3921C19.0844 11.4309 19.2172 11.4655 19.2942 11.5131C19.4398 11.6039 19.5848 11.7081 19.7216 11.808C19.7897 11.8599 20.0039 11.9682 20.0166 12.0549ZM15.6525 8.29105C15.5934 8.29043 15.5345 8.29777 15.4774 8.31289V8.32158H15.4856C15.5201 8.39079 15.58 8.43879 15.6227 8.49918C15.6572 8.56863 15.6871 8.63751 15.7208 8.70683L15.7291 8.69823C15.7895 8.65498 15.8195 8.58567 15.8195 8.48166C15.7934 8.45108 15.7895 8.42113 15.7678 8.39079C15.7426 8.3474 15.6871 8.32585 15.6525 8.29105Z" fill="white"/>
<path d="M20.4241 16.8396H20.5127V16.4005H20.3798L20.2713 16.7002L20.1535 16.4005H20.0255V16.8396H20.1092V16.5055H20.1139L20.2373 16.8396H20.3011L20.4241 16.5055V16.8396ZM19.71 16.8396H19.8038V16.4749H19.9266V16.4003H19.5821V16.4749H19.7098L19.71 16.8396Z" fill="#F8981D"/>
</g>
<defs>
<clipPath id="clip0_419_452">
<rect width="24" height="24" fill="white" transform="translate(0.833313 0.5)"/>
</clipPath>
</defs>
</svg>
