<svg width="17" height="17" viewBox="0 0 17 17" fill="none" xmlns="http://www.w3.org/2000/svg">
<g clip-path="url(#clip0_419_437)">
<path d="M14.5667 0.5H1.76666C0.883002 0.5 0.166656 1.2023 0.166656 2.06863V14.9314C0.166656 15.7977 0.883002 16.5 1.76666 16.5H14.5667C15.4503 16.5 16.1667 15.7977 16.1667 14.9314V2.06863C16.1667 1.2023 15.4503 0.5 14.5667 0.5Z" fill="#3BC0DD"/>
<path d="M8.47833 12.3871C8.38233 12.297 8.28217 12.2066 8.18649 12.1066C8.11001 12.1816 8.03833 12.2518 7.96249 12.3218C7.01561 13.1877 6.03961 13.5482 5.46105 13.1977C4.90137 12.8624 4.72505 11.8716 4.94905 10.6252C4.97295 10.4901 5.00162 10.3549 5.03513 10.2198C4.93465 10.1885 4.83897 10.1596 4.74329 10.1257C3.55193 9.69436 2.76761 8.99378 2.76761 8.29295C2.76761 7.6175 3.49945 6.96178 4.64249 6.5414C4.77049 6.49622 4.90553 6.45138 5.04441 6.41122C5.01241 6.28102 4.98713 6.15583 4.96313 6.03474C4.72377 4.7695 4.89113 3.75865 5.45561 3.41827C6.04377 3.0578 7.01977 3.44337 7.99993 4.34908C8.05721 4.40399 8.11481 4.46422 8.17689 4.52415C8.26777 4.4341 8.35385 4.34409 8.44473 4.26409C9.37273 3.41702 10.2956 3.06282 10.8601 3.40321C11.4482 3.75334 11.6207 4.83442 11.3577 6.1709C11.3433 6.25622 11.3257 6.33622 11.3052 6.42188C11.4249 6.45702 11.5442 6.49686 11.6543 6.53702C12.8214 6.9574 13.5772 7.61308 13.5676 8.30361C13.5676 9.00917 12.7593 9.70501 11.5196 10.1354C11.4527 10.1555 11.3858 10.1806 11.3186 10.2004C11.3474 10.3005 11.3663 10.4005 11.3855 10.5006C11.6342 11.797 11.4428 12.8579 10.8642 13.2084C10.7123 13.2981 10.5376 13.3437 10.3602 13.3401C9.83001 13.3392 9.15673 12.997 8.47833 12.3871ZM9.41593 10.5502C9.14118 10.9692 8.83923 11.3705 8.51193 11.7514C8.60281 11.8456 8.69369 11.9318 8.78457 12.0118C9.57369 12.7224 10.3007 12.9878 10.6406 12.7826C10.7443 12.695 10.8291 12.5879 10.8899 12.4675C10.9507 12.3472 10.9863 12.2162 10.9945 12.0821C11.0635 11.5854 11.0441 11.0808 10.9369 10.5906C10.9225 10.5006 10.9049 10.4106 10.8796 10.3155C10.3977 10.4261 9.90866 10.5045 9.41593 10.5502ZM5.40761 10.7105C5.21177 11.7772 5.35513 12.5722 5.69561 12.7777C5.81625 12.8271 5.94646 12.8499 6.07708 12.8444C6.20771 12.839 6.33551 12.8055 6.45145 12.7463C6.90246 12.5604 7.31321 12.292 7.66169 11.9554C7.73337 11.8951 7.80025 11.8252 7.87225 11.7552C7.53775 11.3741 7.2278 10.9729 6.94425 10.5539C6.45337 10.5138 5.96591 10.4404 5.48537 10.3344C5.45561 10.4652 5.43161 10.59 5.40761 10.7105ZM8.19161 11.4111C8.40217 11.1657 8.61241 10.8956 8.82297 10.5954C8.61241 10.6054 8.39257 10.6104 8.17241 10.6104C7.95225 10.6104 7.74681 10.6054 7.54105 10.5954C7.75609 10.8903 7.97177 11.1657 8.19161 11.4111ZM7.18681 6.52636C7.00505 6.8015 6.82809 7.09106 6.66073 7.39724C6.49337 7.69749 6.34073 8.00274 6.20153 8.30706C6.34521 8.60729 6.49817 8.91253 6.66553 9.22313C6.83289 9.52335 7.00985 9.81922 7.19161 10.0987C7.50713 10.1188 7.83737 10.1301 8.17209 10.1301C8.50681 10.1301 8.84153 10.1201 9.16217 10.0953C9.33433 9.82015 9.51129 9.52463 9.67897 9.21938C9.84665 8.9141 10.0041 8.60383 10.143 8.30361C10.0041 8.00838 9.84633 7.70313 9.67897 7.39756C9.51161 7.09199 9.33465 6.8015 9.15769 6.52665C8.83769 6.50156 8.50713 6.48652 8.17241 6.48652C7.83769 6.48652 7.50745 6.50124 7.18681 6.52636ZM5.60857 9.87442C5.93673 9.94793 6.26889 10.0031 6.60345 10.0398C6.48857 9.84965 6.37401 9.65922 6.26393 9.45906C6.15865 9.26393 6.05337 9.06879 5.95769 8.87365C5.81913 9.21372 5.70425 9.54972 5.60857 9.87442ZM10.0806 9.45404C9.97049 9.6542 9.86041 9.84431 9.75065 10.0297C10.0902 9.98802 10.4272 9.92789 10.7599 9.84965C10.656 9.5118 10.5347 9.17935 10.3964 8.85356C10.2959 9.05372 10.1906 9.25388 10.0806 9.45404ZM4.79065 7.00166C3.81497 7.3621 3.22681 7.88697 3.22681 8.29794C3.24541 8.43017 3.29046 8.5575 3.35938 8.6726C3.42828 8.7877 3.51974 8.88831 3.62841 8.9687C4.00172 9.27647 4.42982 9.51397 4.89113 9.66924C4.97721 9.70063 5.06809 9.72447 5.15897 9.75458C5.30588 9.2623 5.48319 8.77922 5.68985 8.30799C5.48278 7.84486 5.30703 7.36882 5.16377 6.88306C5.03471 6.91695 4.91033 6.95647 4.79065 7.00166ZM10.6594 8.29794C10.8717 8.76319 11.0534 9.24124 11.2034 9.72917C11.2659 9.70908 11.3279 9.68901 11.3852 9.66895C12.4518 9.29874 13.1132 8.73308 13.1167 8.29263C13.1167 7.88226 12.5046 7.35145 11.5049 6.99129C11.4044 6.95647 11.2946 6.92134 11.1849 6.8862C11.04 7.36706 10.8645 7.83858 10.6594 8.29794ZM10.0761 7.1469C10.1862 7.34706 10.2914 7.54252 10.3868 7.73766C10.5197 7.41871 10.6346 7.09289 10.7311 6.76166C10.4063 6.68425 10.0773 6.62415 9.74585 6.58156C9.86073 6.76636 9.97081 6.95177 10.0761 7.1469ZM5.61337 6.75756C5.70937 7.07788 5.82393 7.40322 5.95769 7.73826C6.05369 7.54313 6.15865 7.34799 6.26393 7.15286C6.36921 6.95772 6.47897 6.76761 6.59385 6.5822C6.24953 6.62642 5.92441 6.68636 5.61337 6.75756ZM8.74617 4.63052C8.66489 4.7055 8.58361 4.7855 8.50201 4.86578C8.83414 5.2421 9.13942 5.64044 9.41561 6.05794C9.90236 6.10402 10.3851 6.18434 10.8601 6.29826C10.8793 6.22329 10.8921 6.14799 10.9081 6.07302C11.1321 4.92194 10.9942 4.04102 10.6306 3.82108C10.5509 3.77718 10.4603 3.75548 10.3689 3.75836C9.97817 3.75647 9.37849 4.05481 8.74617 4.62956V4.63052ZM5.68505 3.83366C5.34553 4.03881 5.21145 4.85951 5.41241 5.94063C5.43641 6.05577 5.46041 6.17058 5.48889 6.29074C5.96454 6.18098 6.4471 6.10239 6.93337 6.05545C7.21055 5.6374 7.51747 5.23903 7.85177 4.86329C7.79929 4.80809 7.74169 4.7582 7.68921 4.70799C7.02361 4.0909 6.38361 3.76524 5.96569 3.76524C5.86748 3.76198 5.77027 3.78566 5.68505 3.83366ZM8.81305 6.01561C8.6158 5.7358 8.403 5.46684 8.17561 5.20994C7.96057 5.45497 7.74521 5.7254 7.53561 6.01561C7.74617 6.00556 7.95641 6.00054 8.17177 6.00054C8.38713 6.00054 8.60249 6.00463 8.81305 6.01561ZM7.21561 8.31804C7.21113 8.1894 7.23257 8.06117 7.27874 7.94069C7.32489 7.82018 7.39484 7.70982 7.4846 7.6159C7.57433 7.52194 7.68211 7.44633 7.80172 7.3933C7.92137 7.34028 8.05049 7.3109 8.18169 7.3069C8.44643 7.31574 8.69683 7.42716 8.87791 7.6167C9.059 7.80623 9.15606 8.05846 9.14777 8.31804C9.15631 8.57782 9.05935 8.83033 8.87814 9.02009C8.69695 9.20985 8.44636 9.32137 8.18137 9.3301C8.05007 9.3261 7.92089 9.29673 7.80124 9.24364C7.68156 9.19055 7.57375 9.11481 7.48403 9.02076C7.3943 8.92674 7.32441 8.81625 7.27833 8.69564C7.23228 8.57506 7.21094 8.44671 7.21561 8.31804Z" fill="#E6E6E6"/>
</g>
<defs>
<clipPath id="clip0_419_437">
<rect width="16" height="16" fill="white" transform="translate(0.166656 0.5)"/>
</clipPath>
</defs>
</svg>
